# 3ds Max Wavefront OBJ Exporter v0.97b - (c)2007 guruware
# File Created: 25.06.2020 03:32:50

mtllib launch_arc_half.mtl

#
# object Plane001
#

v  -0.0510 0.4841 0.5006
v  0.0507 0.4831 0.5008
v  0.0510 0.4634 0.3566
v  -0.0510 0.4634 0.3566
v  -0.0510 0.1404 0.0190
v  0.0510 0.1404 0.0190
v  0.0000 0.0000 -0.0001
v  0.0510 0.3336 0.1348
v  -0.0510 0.3336 0.1348
v  -0.0510 0.4022 0.2363
v  0.0510 0.4022 0.2363
v  0.0510 0.2462 0.0670
v  -0.0510 0.2462 0.0670
v  0.0510 0.4177 0.3713
v  0.0465 0.4273 0.4984
v  -0.0510 0.4299 0.4984
v  -0.0510 0.4177 0.3713
v  0.0000 -0.0065 0.0475
v  0.0510 0.1267 0.0651
v  -0.0510 0.1267 0.0651
v  -0.0510 0.3609 0.2606
v  -0.0510 0.2986 0.1676
v  0.0510 0.2986 0.1676
v  0.0510 0.3609 0.2606
v  0.0510 0.2214 0.1081
v  -0.0510 0.2214 0.1081
v  -0.0510 0.4634 0.6454
v  0.0510 0.4634 0.6454
v  0.0510 0.1404 0.9830
v  -0.0510 0.1404 0.9830
v  0.0000 0.0000 1.0021
v  -0.0510 0.3336 0.8672
v  0.0510 0.3336 0.8672
v  0.0510 0.4022 0.7658
v  -0.0510 0.4022 0.7658
v  0.0510 0.2462 0.9350
v  -0.0510 0.2462 0.9350
v  0.0510 0.4177 0.6307
v  -0.0510 0.4177 0.6307
v  0.0510 0.1267 0.9370
v  0.0000 -0.0065 0.9545
v  -0.0510 0.1267 0.9370
v  -0.0510 0.2986 0.8344
v  -0.0510 0.3609 0.7414
v  0.0510 0.3609 0.7414
v  0.0510 0.2986 0.8344
v  -0.0510 0.2214 0.8939
v  0.0510 0.2214 0.8939
# 48 vertices

vn -0.6693 0.7430 -0.0006
vn 0.6969 0.7172 -0.0000
vn 0.6717 0.7072 -0.2207
vn -0.6722 0.7059 -0.2233
vn -0.6927 0.1473 -0.7060
vn 0.6927 0.1473 -0.7060
vn 0.0000 -0.7620 -0.6476
vn 0.6733 0.5396 -0.5055
vn -0.6733 0.5396 -0.5055
vn -0.6934 0.6208 -0.3657
vn 0.6934 0.6208 -0.3657
vn 0.6818 0.3778 -0.6265
vn -0.6818 0.3778 -0.6265
vn 0.7565 -0.6274 0.1847
vn 0.6870 -0.7266 0.0018
vn -0.7472 -0.6646 0.0012
vn -0.7521 -0.6325 0.1852
vn 0.0000 -0.9062 0.4228
vn 0.7564 -0.2514 0.6039
vn -0.7564 -0.2514 0.6039
vn -0.7204 -0.5977 0.3520
vn -0.7453 -0.4870 0.4554
vn 0.7453 -0.4870 0.4554
vn 0.7204 -0.5977 0.3520
vn 0.7339 -0.3503 0.5820
vn -0.7339 -0.3503 0.5820
vn -0.6721 0.7061 0.2230
vn 0.6716 0.7073 0.2206
vn 0.6927 0.1473 0.7060
vn -0.6927 0.1473 0.7060
vn 0.0000 -0.7619 0.6476
vn -0.6733 0.5396 0.5055
vn 0.6733 0.5396 0.5055
vn 0.6934 0.6208 0.3657
vn -0.6934 0.6208 0.3657
vn 0.6818 0.3778 0.6265
vn -0.6818 0.3778 0.6265
vn 0.7568 -0.6274 -0.1834
vn -0.7526 -0.6323 -0.1838
vn 0.7564 -0.2514 -0.6039
vn 0.0000 -0.9062 -0.4228
vn -0.7564 -0.2514 -0.6039
vn -0.7453 -0.4870 -0.4554
vn -0.7204 -0.5977 -0.3520
vn 0.7204 -0.5977 -0.3520
vn 0.7453 -0.4870 -0.4554
vn -0.7339 -0.3503 -0.5820
vn 0.7339 -0.3503 -0.5820
# 48 vertex normals

vt 0.0000 0.5000 0.0000
vt 1.0000 0.5000 0.0000
vt 1.0000 0.5784 0.0000
vt 0.0000 0.5784 0.0000
vt 0.0000 0.9383 0.0000
vt 1.0000 0.9383 0.0000
vt 0.5000 1.0000 0.0000
vt 1.0000 0.7573 0.0000
vt 0.0000 0.7573 0.0000
vt 0.0000 0.6813 0.0000
vt 1.0000 0.6813 0.0000
vt 1.0000 0.8307 0.0000
vt 0.0000 0.8307 0.0000
# 13 texture coords

o Plane001
g Plane001
usemtl wire_028149177
s 2
f 1/1/1 2/2/2 3/3/3 4/4/4 
f 5/5/5 6/6/6 7/7/7 
f 8/8/8 9/9/9 10/10/10 11/11/11 
f 3/3/3 11/11/11 10/10/10 4/4/4 
f 12/12/12 6/6/6 5/5/5 13/13/13 
f 12/12/12 13/13/13 9/9/9 8/8/8 
f 14/3/14 15/2/15 16/1/16 17/4/17 
f 18/7/18 19/6/19 20/5/20 
f 21/10/21 22/9/22 23/8/23 24/11/24 
f 21/10/21 24/11/24 14/3/14 17/4/17 
f 20/5/20 19/6/19 25/12/25 26/13/26 
f 22/9/22 26/13/26 25/12/25 23/8/23 
s 4
f 3/3/3 2/2/2 15/2/15 14/3/14 
s 8
f 1/1/1 4/4/4 17/4/17 16/1/16 
s 4
f 7/7/7 6/6/6 19/6/19 18/7/18 
s 8
f 5/5/5 7/7/7 18/7/18 20/5/20 
f 10/10/10 9/9/9 22/9/22 21/10/21 
s 4
f 8/8/8 11/11/11 24/11/24 23/8/23 
f 11/11/11 3/3/3 14/3/14 24/11/24 
s 8
f 4/4/4 10/10/10 21/10/21 17/4/17 
s 4
f 6/6/6 12/12/12 25/12/25 19/6/19 
s 8
f 13/13/13 5/5/5 20/5/20 26/13/26 
f 9/9/9 13/13/13 26/13/26 22/9/22 
s 4
f 12/12/12 8/8/8 23/8/23 25/12/25 
s 2
f 2/2/2 1/1/1 27/4/27 28/3/28 
f 29/6/29 30/5/30 31/7/31 
f 32/9/32 33/8/33 34/11/34 35/10/35 
f 34/11/34 28/3/28 27/4/27 35/10/35 
f 29/6/29 36/12/36 37/13/37 30/5/30 
f 37/13/37 36/12/36 33/8/33 32/9/32 
f 15/2/15 38/3/38 39/4/39 16/1/16 
f 40/6/40 41/7/41 42/5/42 
f 43/9/43 44/10/44 45/11/45 46/8/46 
f 45/11/45 44/10/44 39/4/39 38/3/38 
f 40/6/40 42/5/42 47/13/47 48/12/48 
f 47/13/47 43/9/43 46/8/46 48/12/48 
s 4
f 2/2/2 28/3/28 38/3/38 15/2/15 
s 8
f 27/4/27 1/1/1 16/1/16 39/4/39 
s 4
f 29/6/29 31/7/31 41/7/41 40/6/40 
s 8
f 31/7/31 30/5/30 42/5/42 41/7/41 
f 32/9/32 35/10/35 44/10/44 43/9/43 
s 4
f 34/11/34 33/8/33 46/8/46 45/11/45 
f 28/3/28 34/11/34 45/11/45 38/3/38 
s 8
f 35/10/35 27/4/27 39/4/39 44/10/44 
s 4
f 36/12/36 29/6/29 40/6/40 48/12/48 
s 8
f 30/5/30 37/13/37 47/13/47 42/5/42 
f 37/13/37 32/9/32 43/9/43 47/13/47 
s 4
f 33/8/33 36/12/36 48/12/48 46/8/46 
# 44 polygons - 4 triangles

